<svg viewBox="0 0 408 212" xmlns="http://www.w3.org/2000/svg" xmlns:xlink="http://www.w3.org/1999/xlink"><text fill="#fff" font-family="Helvetica" font-size="20"><tspan font-weight="700" x="28" y="80">Some People are happy today</tspan><tspan font-weight="700" x="28" y="105">Because life is good</tspan><tspan x="28" y="130">if you have love</tspan><tspan fill="#A73A24" x="195" y="130">and some friends</tspan><tspan x="28" y="155">then you own the world</tspan></text><path d="m10 0 1 5-2 16-2 11 1 2c1-1 1 0 2 1l1 12-3 30C7 88 5 93 3 93c-1 0-2-2-2-6L0 72a386 386 0 0 1 6-59l4-13zm14 0v5a96 96 0 0 1-2 16l-1 11 1 2c1-1 1 0 2 1v12l-2 30c-2 11-3 16-5 16-1 0-2-2-2-6l-1-15a370 370 0 0 1 6-59l4-13z" fill="#F7BC00" id="a"></path><use transform="rotate(180)" transform-origin="center" xlink:href="#a"></use></svg>