<svg xmlns="http://www.w3.org/2000/svg" xmlns:xlink="http://www.w3.org/1999/xlink" viewBox="0 0 631 856" class="h"><path d="m360 116-1-1c-3-1-1 0 0-2 1 0 2 2 1 3Zm233 162 20 37h2c-3 1 17 37 7 38 2-4-6-7-5-2-3 1-4 2-4 5-1 11-10 25-13 36 11 2 1 5 6 5l3-1c-1 1-2 4 0 3 2 2 1 0 0-1 2 0 4 3 6 4 3 0-5-1 0-4 6-9 10-20 11-30 1-1 5 19-1 29-2 2-5 8-4 11-2-1-5 1-6 3l-15 11c-5 4-13 12-11 19-4 1-3-3-3-6l-5 4c-19 12-45 25-66 32 0-2 12-8 12-8-2-2 0-14 0-18 1-11-1-30 4-41 1-9 7-19 8-28-5 0-9-4-14-5-1-5-15 2-12-5 3 0 12 1 13-2l11 3c-1 3 1 2 3 2s3 3 4 1c5-6-18-9-18-14 3-3-14-8-6-11l4 4c-2-4-3-5 2-6h-6c0-3-1-3 2-2-2-4 10-1 11-2 2 0 5 4 6 2-2 0-2 0-2-2 6 2 24 12 29 4 9-8 20-9 25-21 6-4 9-6 3-12-5-7-4-7-1-4-1-3-10-10-13-12-4-2-14-2-19-2-3-8 17 0 21-1 7 5 15 14 20 20 1 0 5 11 4 3 3-11-16-24-15-36-2-6 0-3 2 0Zm-25 165c-4-5-3-16-4-22v-7c-2 17 0-8-1-9l1-9c-3 1-3 13-4 16 0 3-3 7-3 3l-2 13c-1 7 0 15-8 16 6-10-2-27 4-37 4-13 1-5-3 1-1 2-3 12-6 9-3 8-15 41-11 42l-1 1c-4 3 9-2 9-2 1-1 30-14 29-15Zm40-123c2 0 1 0 0-1v1Zm-142 15c-1-2-3-5 0-7 3 3 8 18 0 7Zm-342 1v-1h-3l-1 1v1h-2v-1l-1-1h-4l-1 2h-1l-1-3h-3l-2 7-6 8-7 2-7-2-2-3-2-2v-6l2-1 2-3H45v-5l2-1 4-1h2v-3l2-1 3-1 56 1-1 1h7v-1c5 0 8 1 8 2-1 6-2 9-4 11Zm-88-71v-15c-3 4-1-3-1-4 0-8-4-17-3-25l4-35 1 5c0-3 5-15 1-11 6-32 26-121 53-137 9-14 27-11 42-15 6-1 16 3 20-1 2 2 12 0 5 2h-4l5 1c2 0 5 1 4-2 7 0 19-1 25 2 17 0 128-3 153 3 0 2 26-3 20 2-2 2 0 0 1 0 4-7 35-10 44-12 2-2 4-2 7-2 2-1 13-41 17-40-4 11-29 69-3 19l10-18c1 2-27 45-11 36 6 2 12-15 14-18h11c-7 13-6 13-5 13 23-1 61-18 80-12-11 3-92 14-85 26 8 3 18-7 26-8 11-5 57-12 13 3-31 8 34-4 30-5 1-2 1 0 1 1h6l8-1 2-1v2c-15 0-30 5-45 7-4 1-30 5-25 7-2 3-5 2-8 1-1 2-7 3-9 4-3-1-6 6-7 8l10-3c4-1 15-2 17-6-2 4 7 0 8 0 1 1 32-12 28-6-1 0-24 11-14 5l2-2-20 8c4-5-16 4-18 3-4 2-16 2-15 7-10 9 25-3 29-3 1-1 16 1 9-3 7 2 17-1 24-2 1 4-5 0-4 4-2-1-3-2-3 1-2-2-3-2-5-1h-5c-14 4-49 3-52 21-3 8 25-6 28-6 2-1 14-3 16-6-1 2 1 0 3 0-2 2-8 4-7 6-7 4 4-5-6 0-10 4-24 10-35 11l-5 11c3 1 12-6 14-6 2 5 8-3 11 1-1 3 3 23-3 23-2 0-6-3-8-1-4-1-4 4-6 6l-8 4c-3-1-7-7-9-3-1-1 1-5-1-4-3-2-5 12-1 13l48-1c27-1 78-6 102 10 42 34 55 93 37 143 0 6 0 3-3 0 12-37 12-81-12-114-34-58-120-33-179-35-21-1-1-21 7-28 9-4 23-5 33-5-15-8-47 9-64 15l-14 8c0-2 1-9-1-10-3-4 1 13-3 12-2 2-2 2-4 1l6 4h-3c-2-2-2-4-4-1-8 4-7-7-10 4l-14-2c-2 6-13 2-18 4-3 0-6 1-7-3-4 1-8 4-12 4-11-7-7-6-16 1-13 2-10-16-24-14-13-1-31-4-44-7 2-5-7-2-9-3-32-5 33-15 39-19-2-2-30 6-37 7-4 2-15 8-18 1-4 0-5 1 0 1v5c0-3-3-5-6-4 6-5 25-15 32-19 5-2 16-10 21-10l6-3c-17 2-55 19-63 26-6 2-1 6-5 5-2 1 0 6-4 5l1-2-2 2-4 3s-3 0-1 1l-11 8c-1 3 3 3 1 1 8-9 5 1 7-3 2-2 0-1-1 0 1-2 5-8 7-4 0-4 7 0 5 3-2 0-6 4-8 2 2 2-11 3-7 3 2 2 3 0 5-1 0 6 0 0 3-1 3 0-1 2-1 2l7 11c1 3 0 5-2 1 1 3 1 7 3 2l6 19c2 5 4 16 4 22-15-1-28-13-16 12 1 2 1 6-3 5-3 3-5-2-7-4-4-7-4-1-10-2 0-9-5-15-12-20-3 0-8 0-10-2l-6-1-29-26c-3-2-8-10-12-7-3 3-10 4-11-1-9 36-18 70-23 100v26l1-24c2 5 1 32 3 36 3 9 4 10 2 18 3-10 9 1 8 6-2-1-2 2-2 3 0-1-5 1-5-1 5-1 1-1-1-1v-7c-5 1-5-6-7-9Zm91-129-8 15c-1 0-3 1-1 2 4-3 10-14 9-17Zm43-50-3 1c1 2 2 0 3-1Zm-69-44c3 11 25 24 32 34 4 0 6 0 5 4 2 5 6-2 8-3l16-11 2-15c3-2 15-8 15-2 6 0-2-2 6-3 9-1 20-2 26-9 1 0 9 1 8-2-27 1-69-2-76-4-12-1-27 7-42 11ZM61 679l8-8-6-4-7-38 27-32 6 23 2-6 2 3 3-3h4l-1-2 7-6 1 2 10-3 28 15 12-6 3 7 68 9 2 29 2 1v-3l15-3v31l-16-15-2 4 6 14-31-14-22 19-24-27-30 17-13-20-54 16Zm566-41-7-21c4-4 0-18-2-22-6-2-20-2-23-8-2-1-4-1-3-4l-2-2c8 0 0 2 8 4l-1-3c2 2 10 3 13 4 3 0 8 6 5-2-3-4-7-16-12-7-3-1-5-6-7-2-6-2 4-7-9-3-4 1-2-3-4-6 3-1 9-2 11-4 1-4-2-6-5-8 1-2-5-6-6-7-6-8-5-3-12-2 5-3-2-2-4-1l4 1c-6 2-17 11-20 2-1-2-4-4-7-3-1-5-9-10-8-16 3 0 1 0 1 2 4 1 1-3 3-1 11 6 4 0 10 0h3c3-2 1-11 4-4 1-4-5-6-7-9-6 9-13 13-4 0 1-9-54-36-33-43-10 8 31 32 36 39 3-1 4-5 3-8 2 0 4-1 3 2 1 0 4-5 5-4 2-1 5-2 1-2-2 3 0-1 0-2 2-11-3-7 5-19 4-5 5-16 5-22l12-6c7 9 1 42 1 58 5-14 10-29 9-44-1-7-5-16 5-18l4 1-1-1c-3-4 1 0 2 1l-2 2c4-4 7 3 10 5v4l1 1-2 4c-1 0-1-2-1 0 1 2 1 2-1 3-1 1-1 3 1 3l-1 4c-3-3 0 1-1 3-4-1-2 5-1 7 1-2 3-18 6-9-3 0 4 6-2 5 2 2 1 2-1 2l2 2c-1 1-2 11-2 3-5-2 0 13-3 12 0-2 1-7-3-6v12l2-4c-1 19 10-24 10-29-2-7 5-10 2-12 1-4 4-5 3-11-5-2 3-9-2-9l1-7c2-2 11-2 8-4M516 302l-29 20-1-5-22 4v7l-23-5 12-29-35-2 31-16-6-32-36 18 11-14-6-3 27-65 66 64-21-79-121 16 1-6v1l15-3 1 4 112-20 16 84 29-12-26 22 13 1-11 7 11 3-8 20-7-8-22 29h19l-10 6 20-7Zm-38-8c-4-1-6-10-7-13-4-2-2-7-5-6-12-1 4 22-5 17l-5-15-3 1 6 30c1 1 4-3 5-3 2-3 7-7 14-11Zm0 0c16-11 39-26 32-32l-32 9c-12 4 1 15 0 23ZM354 743c-1-1-162-21-161-23-30 3-89 29-113 8-19-58-3-19 32-26 5-1 6 2 12 2-3 1 0 7-4 6q-1 2-2-3v4c-2 2-3 2-3-1-3 0-4 2-5-2s-2 0-4 1v-5c-4-2-1 6-2 7-2-2-6-3-5 1l-4-2c-2 3-4 2-5-1-2 3-3 3-6 1-8 4-6 3-3 11 3 32 129-14 155-10 3 2 134 25 130 32 7 5-11 0-12 0ZM83 393l18-6v-3l4 2-2-3 4 2v-1l-1-1h2l1 1-1-3 2 2 6-4v2l-42 21 22 5 20-23 1 12h5l9-15-1-3 18-6v-5l-3-1-4 2-7-2 3-31h-2v-12l7-1v3l1-1h1v-8h-1l2-18h2l1 7 1-5v19l1 1 13-18 1 3 2-4-1-1h3v3h3l2 9h4l1 3 3 1 8-5 2-11h4v5l6 3 3 10 3-1 7-55 67-67v2l17-8 1 1h1l2-3v1h1l2-2h-1l2-2 2 3v-3l1 1 8-2-13 9-1-1h-1l-87 84-3 30 2 2h2l5 9h2l-1 5 3-6-17 45-4-9 4 10-20 25-6-10 5 11-22 25-5-13 5 14-13 13-5-15 5 17-15 13h-4l-3-14 2 14h-3l-1-1v-1l-9 5-9-4-5 2-2-2 1-1-4-3 3 7-8 3-2-4 3-3-2-2v4l-5-3-28 23h-3v8l11-4 5 2-4-2 17-5 2 4h-1l-1 1 3-1v1l-34 12-2 7-2-1v2l-5 1v-7l-25 9-1-1v2l-6 5 1 31 1-15 4-1-1 14 2-3 5 7 10 27-19-3-2 2 1 13 16-2-2-3 2 2 9-2 2-2-2-8-3 1-11-30 7-14h6l-1 9 5 3v1l10-13h5l3 15 3-9h5v2l5 5 15-21-6-1-8-1 5-4 51 12 8-11h3l27-24h2l11-11h3l7-20-2-4-52 34v2h-3l-1 4h-3v1l-7 6h-2l1-2h-1v-2h-2l-1 2v-2l7-6h3l-1 2 1-1v-4l16-13h2l5-5v-2l3-2 1-4-20 5 1-1-4-2 20-12 5 6h2l-6-7 14-10 10 12-9-12 42-50 8 11-8-13 17-39 8 12h-2l-6 17 3 4 24 2 19-52h1l4 5-2 9 1 1 6-5 3 4 1-1v-1l38-3-13-17 1-1-1-9h2l3 11 3-1 19 18 24 2-2 8 6 2 12-24h6l-8 67h-2l-5 9h3l-18 14-1-2 10-11h2l5-10h-2l10-45-6 7-29-2v4l-20 11-9-7 1-9-41 4 7 16-6 4-7-11-8 15 1 1h5v1l-23 24 24-22 6 23-2-3v5l-1 1h-1l-1 15 20 9-4 6h3l-3 2 4 4 6-1 2 2 5-6 14 1v1l1 1 4-1-1-1v-2h1l1 1-2-4-16-5 1-1v-1l4-1 4 2-1-1v-2l4 2v-2h4l3 5 1-1v-1l11-4-2 4 13-8-16 12 1 4h-1l-1 3 33 9 1 5 2 1 3 15-2 3 1 1-9 15h-3l-1-1v1h-3v-4l-14-5-12 18-4 1v2l-28-1-1 1v1h-16v-5l-8-8-3 3-15-3-1 1 3 19 3-1 4-6 1 1h1v-2h5l1 5 3 2 3-1 5 27h2v-1l4-5v-9l8 1v4l2-2v3l5 6v-2h3l-2 15-3 2v3l-11-1-10-10-7 8-30-1-5 4-11-1-1-1v-1l-23-1-2 4-140 10-2 5-4-3-1 1v1l-8-1 3 8h1l-1 2 122 16 1 2h-7v-1L49 564l3 11-4-1-3-10-29 6-2-2-1-13-9-10H3l2-44 3 1-1-3h2v-4l2 5-6-134-2 2 5-27 2 1-2 43 5 104 24-11 2-4 11-3 2-7v2l1 1 3-73-31-16-1-4 11 9-1-4 7 4-1 1v1l14 5-3-6h-3l-8-25 16 28 27 6Zm275 11-9 6 9-7v1Z" fill="#0e0c0b"></path></svg>
